<svg width="66" height="14" viewBox="0 0 66 14" fill="none" xmlns="http://www.w3.org/2000/svg">
<path d="M2.11379 8.70022H6.2035V10.7221H0V0H2.11379V8.70022Z" fill="white"/>
<path d="M13.688 9.77243C12.9017 10.5485 11.9419 10.9365 10.8084 10.9365C9.6749 10.9365 8.71502 10.5485 7.92873 9.77243C7.15265 8.98614 6.76462 8.02626 6.76462 6.89278C6.76462 5.7593 7.15265 4.80452 7.92873 4.02845C8.71502 3.24216 9.6749 2.84902 10.8084 2.84902C11.9419 2.84902 12.9017 3.24216 13.688 4.02845C14.4743 4.80452 14.8675 5.7593 14.8675 6.89278C14.8675 8.02626 14.4743 8.98614 13.688 9.77243ZM9.3226 8.40919C9.72085 8.80744 10.2161 9.00656 10.8084 9.00656C11.4006 9.00656 11.8959 8.80744 12.2942 8.40919C12.6924 8.01094 12.8915 7.50547 12.8915 6.89278C12.8915 6.28009 12.6924 5.77462 12.2942 5.37637C11.8959 4.97812 11.4006 4.77899 10.8084 4.77899C10.2161 4.77899 9.72085 4.97812 9.3226 5.37637C8.93456 5.77462 8.74055 6.28009 8.74055 6.89278C8.74055 7.50547 8.93456 8.01094 9.3226 8.40919Z" fill="white"/>
<path d="M22.124 3.06346H24.054V10.3545C24.054 11.539 23.6609 12.4427 22.8746 13.0656C22.0985 13.6885 21.159 14 20.0562 14C19.2291 14 18.4989 13.8417 17.8658 13.5252C17.2429 13.2086 16.763 12.744 16.426 12.1313L18.1109 11.1663C18.4989 11.8811 19.1678 12.2385 20.1175 12.2385C20.7404 12.2385 21.2305 12.0751 21.5879 11.7484C21.9453 11.4216 22.124 10.957 22.124 10.3545V9.52735C21.542 10.3034 20.725 10.6915 19.6733 10.6915C18.5908 10.6915 17.682 10.3136 16.9468 9.55799C16.2218 8.79212 15.8593 7.86287 15.8593 6.77024C15.8593 5.68782 16.2269 4.76368 16.9621 3.99781C17.6973 3.23195 18.601 2.84902 19.6733 2.84902C20.725 2.84902 21.542 3.23705 22.124 4.01313V3.06346ZM18.4326 8.28665C18.841 8.67469 19.3567 8.86871 19.9796 8.86871C20.6025 8.86871 21.1131 8.67469 21.5113 8.28665C21.9198 7.8884 22.124 7.38293 22.124 6.77024C22.124 6.16776 21.9198 5.6725 21.5113 5.28446C21.1131 4.88621 20.6025 4.68709 19.9796 4.68709C19.3567 4.68709 18.841 4.88621 18.4326 5.28446C18.0343 5.6725 17.8352 6.16776 17.8352 6.77024C17.8352 7.38293 18.0343 7.8884 18.4326 8.28665Z" fill="white"/>
<path d="M32.3709 9.77243C31.5846 10.5485 30.6248 10.9365 29.4913 10.9365C28.3578 10.9365 27.3979 10.5485 26.6116 9.77243C25.8356 8.98614 25.4475 8.02626 25.4475 6.89278C25.4475 5.7593 25.8356 4.80452 26.6116 4.02845C27.3979 3.24216 28.3578 2.84902 29.4913 2.84902C30.6248 2.84902 31.5846 3.24216 32.3709 4.02845C33.1572 4.80452 33.5504 5.7593 33.5504 6.89278C33.5504 8.02626 33.1572 8.98614 32.3709 9.77243ZM28.0055 8.40919C28.4038 8.80744 28.899 9.00656 29.4913 9.00656C30.0835 9.00656 30.5788 8.80744 30.9771 8.40919C31.3753 8.01094 31.5744 7.50547 31.5744 6.89278C31.5744 6.28009 31.3753 5.77462 30.9771 5.37637C30.5788 4.97812 30.0835 4.77899 29.4913 4.77899C28.899 4.77899 28.4038 4.97812 28.0055 5.37637C27.6175 5.77462 27.4234 6.28009 27.4234 6.89278C27.4234 7.50547 27.6175 8.01094 28.0055 8.40919Z" fill="white"/>
<path d="M39.1566 4.9628H37.4258V8.1488C37.4258 8.4143 37.4921 8.60832 37.6249 8.73085C37.7576 8.85339 37.9516 8.92487 38.2069 8.94529C38.4622 8.95551 38.7788 8.9504 39.1566 8.92998V10.7221C37.7985 10.8753 36.8386 10.7476 36.277 10.3392C35.7255 9.93071 35.4498 9.20058 35.4498 8.1488V4.9628H34.1172V3.06346H35.4498V1.51641L37.4258 0.919037V3.06346H39.1566V4.9628Z" fill="white"/>
<path d="M45.7077 3.06346H47.8215L45.0338 10.7221C44.6355 11.8249 44.1045 12.6214 43.4408 13.1116C42.7872 13.612 41.9703 13.8366 40.99 13.7856V11.9475C41.521 11.9577 41.9397 11.8454 42.246 11.6105C42.5626 11.3756 42.8128 10.9978 42.9966 10.477L39.8565 3.06346H42.0163L44.0075 8.21006L45.7077 3.06346Z" fill="white"/>
<path d="M53.2192 2.84902C54.2506 2.84902 55.1287 3.24216 55.8538 4.02845C56.589 4.80452 56.9566 5.7593 56.9566 6.89278C56.9566 8.02626 56.589 8.98614 55.8538 9.77243C55.1287 10.5485 54.2506 10.9365 53.2192 10.9365C52.147 10.9365 51.3198 10.5638 50.7378 9.81838V13.7856H48.7619V3.06346H50.7378V3.96718C51.3198 3.22174 52.147 2.84902 53.2192 2.84902ZM51.3352 8.45514C51.7334 8.85339 52.2389 9.05252 52.8516 9.05252C53.4643 9.05252 53.9697 8.85339 54.368 8.45514C54.7764 8.04668 54.9807 7.52589 54.9807 6.89278C54.9807 6.25966 54.7764 5.74398 54.368 5.34573C53.9697 4.93727 53.4643 4.73304 52.8516 4.73304C52.2389 4.73304 51.7334 4.93727 51.3352 5.34573C50.9369 5.74398 50.7378 6.25966 50.7378 6.89278C50.7378 7.52589 50.9369 8.04668 51.3352 8.45514Z" fill="white"/>
<path d="M60.0197 7.70459C60.2852 8.66448 61.0051 9.14442 62.1794 9.14442C62.9351 9.14442 63.5069 8.88913 63.895 8.37856L65.488 9.29759C64.7323 10.3902 63.6193 10.9365 62.1488 10.9365C60.8826 10.9365 59.8665 10.5536 59.1007 9.78775C58.3348 9.02188 57.9519 8.05689 57.9519 6.89278C57.9519 5.73888 58.3297 4.77899 59.0854 4.01313C59.841 3.23705 60.8111 2.84902 61.9956 2.84902C63.1189 2.84902 64.043 3.23705 64.7681 4.01313C65.5033 4.7892 65.8709 5.74909 65.8709 6.89278C65.8709 7.14807 65.8454 7.41867 65.7943 7.70459H60.0197ZM59.9891 6.17287H63.895C63.7827 5.65208 63.5478 5.26404 63.1904 5.00875C62.8432 4.75346 62.4449 4.62582 61.9956 4.62582C61.4646 4.62582 61.0255 4.76368 60.6783 5.03939C60.3312 5.30489 60.1014 5.68271 59.9891 6.17287Z" fill="white"/>
</svg>
